<?xml version="1.0" standalone="no"?>
<!DOCTYPE svg PUBLIC "-//W3C//DTD SVG 20010904//EN"
 "http://www.w3.org/TR/2001/REC-SVG-20010904/DTD/svg10.dtd">
<svg version="1.0" xmlns="http://www.w3.org/2000/svg"
 width="750.000000pt" height="708.000000pt" viewBox="0 0 750.000000 708.000000"
 preserveAspectRatio="xMidYMid meet">

<g transform="translate(0.000000,708.000000) scale(0.100000,-0.100000)"
fill="#000000" stroke="none">
<path d="M3270 6349 c0 -5 5 -7 10 -4 6 3 10 8 10 11 0 2 -4 4 -10 4 -5 0 -10
-5 -10 -11z"/>
<path d="M2972 6115 c-13 -7 -30 -25 -37 -39 -13 -25 -13 -27 18 -40 31 -14
31 -14 6 -15 -14 -1 -37 -14 -53 -30 -23 -24 -28 -36 -23 -60 6 -29 5 -31 -25
-31 -44 0 -100 -37 -96 -63 2 -15 -3 -22 -17 -25 -43 -7 -91 -34 -106 -60 -10
-19 -30 -32 -59 -41 -24 -7 -56 -25 -71 -41 -29 -28 -28 -40 0 -40 9 0 28 -6
42 -14 18 -9 39 -11 70 -6 47 8 109 31 109 40 -1 15 -29 37 -60 48 -33 11 -31
11 27 7 35 -3 75 0 90 6 92 38 114 61 62 67 -13 2 -31 5 -39 8 -26 9 10 24 58
24 23 0 42 5 42 10 0 6 9 10 20 10 13 0 20 7 20 20 0 11 3 19 8 19 23 -4 42 2
37 11 -5 8 -11 8 -20 0 -9 -8 -14 -7 -18 3 -7 19 4 33 34 40 29 7 69 39 69 56
0 6 -13 11 -30 11 -38 0 -39 21 -2 52 29 24 62 67 62 80 0 13 -93 7 -118 -7z"/>
<path d="M4520 6125 c0 -15 48 -75 72 -91 15 -11 28 -22 28 -26 0 -4 -18 -12
-40 -18 -43 -12 -51 -24 -22 -34 9 -4 37 -18 62 -31 40 -20 45 -27 45 -57 0
-18 5 -33 10 -33 6 0 17 -5 25 -10 8 -5 35 -12 60 -15 49 -6 61 -23 18 -28
-28 -3 -62 -32 -38 -32 8 0 21 -7 31 -16 9 -8 23 -17 31 -18 7 -2 25 -6 39
-10 15 -4 43 -3 62 2 47 13 55 3 15 -17 -46 -23 -45 -37 3 -60 48 -24 95 -26
148 -10 20 7 42 14 50 16 30 8 -74 83 -116 83 -7 0 -19 13 -27 28 -16 31 -47
51 -97 61 -27 5 -34 12 -34 30 0 28 -54 61 -97 61 -29 0 -37 17 -16 38 8 8 3
19 -23 45 -19 19 -41 36 -49 39 -12 5 -12 8 5 21 17 13 18 18 7 38 -7 13 -25
30 -39 37 -26 12 -113 17 -113 7z"/>
<path d="M2857 6089 c-9 -6 -27 -7 -40 -3 -19 6 -20 5 -8 -10 13 -16 11 -18
-18 -20 -8 -1 -15 -8 -17 -16 -1 -8 -9 -31 -18 -50 l-15 -35 -1 32 c0 17 -4
35 -10 38 -12 7 -60 -39 -88 -86 -23 -38 -31 -122 -12 -134 11 -7 55 37 75 76
11 21 19 25 43 21 24 -3 38 5 80 46 39 38 52 58 52 80 0 16 7 35 15 42 32 26
1 42 -38 19z"/>
<path d="M4710 6082 c0 -10 4 -22 9 -27 5 -6 14 -27 21 -47 13 -42 92 -114
111 -103 14 9 5 100 -12 121 -9 11 -9 14 0 14 7 0 10 4 6 10 -3 5 -12 7 -19 4
-7 -3 -30 6 -51 20 -44 31 -65 33 -65 8z"/>
<path d="M2660 6049 c0 -5 5 -7 10 -4 6 3 10 8 10 11 0 2 -4 4 -10 4 -5 0 -10
-5 -10 -11z"/>
<path d="M2545 6020 c-3 -5 -1 -10 4 -10 6 0 11 5 11 10 0 6 -2 10 -4 10 -3 0
-8 -4 -11 -10z"/>
<path d="M4880 5962 c4 -44 13 -68 39 -105 75 -103 118 -23 47 88 -32 49 -61
75 -83 75 -4 0 -6 -26 -3 -58z"/>
<path d="M4990 6012 c0 -12 19 -26 26 -19 2 2 -2 10 -11 17 -9 8 -15 8 -15 2z"/>
<path d="M2600 5989 c0 -5 5 -7 10 -4 6 3 10 8 10 11 0 2 -4 4 -10 4 -5 0 -10
-5 -10 -11z"/>
<path d="M2538 5926 c-23 -26 -29 -28 -37 -16 -6 8 -13 11 -18 7 -4 -5 -1 -12
7 -17 11 -7 12 -15 5 -36 -14 -38 -40 -46 -33 -10 3 15 1 29 -4 32 -10 6 -83
-63 -83 -80 0 -6 -8 -22 -18 -36 -16 -22 -19 -23 -27 -9 -8 13 -22 16 -63 15
-92 -4 -147 -67 -101 -117 14 -16 14 -18 -8 -24 -25 -8 -84 -60 -100 -88 -6
-13 -6 -23 2 -33 10 -11 8 -15 -6 -21 -43 -15 -74 -46 -86 -84 -6 -23 -23 -48
-36 -57 -67 -46 -94 -101 -52 -103 11 -1 26 -2 33 -3 6 -1 33 1 58 4 l47 6
-15 -23 c-12 -18 -21 -22 -37 -17 -70 23 -153 -5 -192 -64 -24 -36 -12 -52 42
-52 32 0 44 -4 41 -12 -2 -8 -23 -13 -54 -14 -61 0 -103 -24 -103 -59 0 -13
-10 -31 -22 -40 -22 -15 -23 -14 -30 11 -10 39 1 79 25 89 35 16 52 130 22
155 -8 7 -15 21 -15 31 0 30 -24 22 -40 -13 -7 -18 -16 -53 -19 -78 -5 -39 -9
-45 -27 -43 -38 4 -50 -45 -30 -125 20 -83 21 -122 2 -122 -9 0 -15 -16 -19
-46 -6 -56 -28 -84 -51 -65 -13 11 -17 11 -21 -1 -3 -7 -26 -25 -50 -38 -66
-36 -84 -99 -41 -141 l24 -23 -23 -43 c-15 -25 -25 -63 -27 -94 -4 -62 -20
-73 -42 -28 -20 41 -20 46 3 75 10 13 22 43 25 67 6 36 2 54 -24 106 -22 43
-30 71 -26 89 7 31 -9 68 -18 42 -2 -8 -7 -42 -11 -75 -6 -58 -25 -102 -25
-58 0 35 -17 35 -22 0 -3 -17 -6 -79 -7 -137 -2 -104 -2 -106 33 -163 35 -58
34 -59 -16 -25 -14 10 -34 18 -43 18 -15 0 -16 -7 -10 -52 4 -29 16 -68 26
-87 11 -18 18 -36 15 -39 -8 -8 -76 28 -76 40 0 9 -3 9 -11 1 -7 -7 -8 -17 -1
-29 5 -11 12 -43 15 -73 4 -30 11 -57 17 -61 8 -5 -30 -6 -87 -1 -8 1 -13 15
-13 34 0 17 -7 41 -15 51 -8 11 -15 30 -15 42 0 13 -4 26 -10 29 -5 3 -10 -2
-10 -13 0 -10 -8 -26 -17 -35 -10 -9 -26 -31 -36 -50 -18 -33 -18 -34 4 -71
12 -21 32 -42 45 -46 21 -8 23 -17 26 -77 3 -68 3 -68 31 -66 24 2 27 -1 21
-15 -15 -35 -16 -75 -4 -113 13 -38 20 -43 50 -39 12 1 13 -1 2 -11 -15 -17
-16 -121 0 -137 23 -23 46 -12 72 35 15 25 29 57 32 70 9 34 24 28 24 -9 0
-23 -12 -48 -40 -83 -36 -45 -40 -56 -40 -106 0 -42 5 -60 18 -72 26 -24 35
-21 55 13 10 17 22 30 28 30 17 0 9 -19 -21 -50 -32 -33 -34 -39 -24 -89 5
-21 12 -31 25 -31 11 0 19 -2 19 -4 0 -12 -23 -66 -28 -66 -4 0 -23 14 -42 31
-22 20 -31 32 -22 36 6 2 12 9 12 14 0 21 -55 90 -83 104 -33 17 -83 20 -91 6
-11 -16 61 -97 96 -108 l33 -10 -27 -11 c-16 -6 -28 -15 -28 -20 0 -14 43 -49
80 -65 55 -22 94 -61 140 -138 23 -39 44 -68 47 -66 2 3 -3 26 -12 53 -24 72
-29 127 -14 170 16 47 12 128 -7 167 -11 19 -15 70 -17 175 -2 139 0 151 26
222 15 41 37 87 47 102 11 15 21 38 23 50 2 19 -3 24 -30 26 -25 3 -36 -3 -57
-31 -28 -36 -33 -66 -15 -84 8 -8 8 -17 0 -32 -17 -32 -35 -25 -55 19 -15 35
-16 42 -3 60 14 20 13 30 -9 124 -7 27 -5 29 21 24 27 -6 27 -5 22 37 -7 45 8
115 23 115 6 0 10 -9 10 -20 0 -10 9 -24 20 -30 11 -6 20 -7 20 -2 0 5 18 22
39 36 26 18 48 47 65 82 39 81 35 97 -19 72 -38 -17 -39 -5 -3 34 43 45 68 80
68 93 -1 5 -7 27 -15 48 -13 37 -12 40 11 60 13 11 24 29 24 39 0 17 76 139
132 213 50 66 94 124 110 146 84 118 120 167 136 184 10 11 53 61 95 112 43
50 96 108 119 128 44 37 118 65 175 65 23 0 49 12 83 37 53 39 59 50 35 59 -8
4 -15 13 -15 21 0 21 -74 11 -101 -13 -25 -22 -24 -33 4 -44 18 -7 13 -9 -25
-9 -33 -1 -48 3 -48 12 0 24 25 67 38 67 15 0 51 39 52 56 0 20 42 49 65 46
27 -4 78 55 89 103 7 26 9 27 17 12 6 -9 18 -17 28 -17 21 0 65 62 73 103 6
30 -8 117 -20 128 -4 3 -19 -8 -34 -25z m-428 -546 c0 -5 -17 -10 -37 -10 -28
0 -34 3 -23 10 20 13 60 13 60 0z m-470 -290 c0 -5 -5 -10 -11 -10 -5 0 -7 5
-4 10 3 6 8 10 11 10 2 0 4 -4 4 -10z m90 -159 c0 -21 -125 -159 -136 -149
-19 20 20 79 86 130 36 29 50 34 50 19z m-465 -411 c4 -16 11 -30 16 -30 5 0
9 -7 9 -16 0 -13 -5 -11 -25 7 -13 13 -25 34 -25 47 0 32 17 27 25 -8z m-128
-597 c-3 -10 -5 -4 -5 12 0 17 2 24 5 18 2 -7 2 -21 0 -30z"/>
<path d="M5028 5887 c-5 -78 5 -117 42 -155 27 -29 44 -24 48 14 6 50 22 52
22 2 0 -46 18 -79 64 -121 20 -17 21 -17 39 5 10 13 16 17 12 10 -8 -16 32
-72 92 -128 53 -51 56 -74 9 -74 -28 0 -33 3 -29 18 11 44 -79 78 -112 42 -10
-11 -25 -20 -34 -20 -17 -1 45 -60 63 -60 5 0 14 -7 20 -15 6 -9 27 -16 51
-16 78 -1 133 -27 208 -98 42 -39 72 -61 74 -53 3 8 28 12 78 12 41 0 76 4 79
8 8 13 -43 82 -59 82 -8 0 -20 9 -27 20 -9 14 -20 18 -38 14 -21 -4 -22 -4 -7
6 9 6 17 19 17 28 0 23 -39 67 -67 76 -18 6 -21 12 -17 35 5 23 -1 34 -30 62
-20 19 -49 41 -65 50 -27 15 -28 16 -10 27 28 18 23 38 -18 83 l-38 40 -65 -9
c-59 -9 -66 -8 -83 12 -10 11 -25 36 -33 54 -8 17 -18 32 -22 32 -4 0 -24 16
-45 35 -21 20 -51 37 -66 39 -16 2 -33 6 -38 9 -7 4 -12 -19 -15 -66z m113
-17 c5 0 9 -7 9 -15 0 -23 -16 -18 -34 10 -20 31 -21 41 0 21 8 -9 20 -16 25
-16z m434 -489 c18 -7 17 -8 -7 -14 -29 -8 -58 0 -58 14 0 11 37 11 65 0z"/>
<path d="M2255 5914 c-27 -14 -56 -31 -63 -36 -19 -16 -25 -3 -7 15 21 21 19
30 -4 15 -13 -8 -19 -22 -18 -47 1 -20 -2 -43 -6 -52 -6 -13 -1 -18 24 -23 45
-9 94 30 110 87 7 23 17 48 22 55 14 18 -2 14 -58 -14z"/>
<path d="M5300 5930 c0 -5 11 -34 24 -64 38 -86 116 -114 116 -41 0 37 -19 57
-86 91 -54 27 -54 27 -54 14z"/>
<path d="M5440 5880 c0 -5 5 -10 10 -10 6 0 10 5 10 10 0 6 -4 10 -10 10 -5 0
-10 -4 -10 -10z"/>
<path d="M2103 5825 c-18 -19 -37 -35 -43 -35 -5 0 -9 -5 -7 -11 1 -6 -4 -14
-10 -16 -7 -3 -13 0 -13 7 0 6 -4 9 -9 6 -5 -3 -7 -25 -4 -49 4 -37 3 -40 -10
-25 -13 16 -16 16 -39 -10 -52 -55 -76 -183 -40 -215 26 -23 29 -22 51 21 20
38 31 138 18 159 -4 6 0 13 8 17 11 4 15 -1 15 -17 0 -30 11 -67 19 -67 4 0
23 22 44 50 34 45 37 55 37 113 0 35 5 68 11 74 6 6 10 16 8 22 -2 6 -19 -5
-36 -24z"/>
<path d="M5480 5797 c0 -66 14 -109 53 -164 35 -49 54 -55 59 -16 6 51 23 33
23 -25 0 -35 8 -74 20 -99 18 -41 20 -42 42 -28 31 21 33 20 33 -22 0 -55 29
-113 56 -113 17 0 24 -8 29 -30 10 -46 43 -107 61 -114 9 -4 17 -5 18 -4 15
32 30 81 33 110 5 36 -23 148 -36 148 -10 -1 -51 -70 -51 -86 0 -8 -5 -14 -11
-14 -8 0 -9 13 -4 43 12 73 11 78 -38 175 -16 30 -27 28 -27 -6 0 -16 -6 -37
-14 -48 -14 -18 -15 -18 -20 6 -2 14 -7 43 -10 64 -5 40 -54 146 -67 146 -4 0
-10 -11 -13 -25 -9 -35 -30 -20 -22 16 4 22 1 29 -15 34 -16 6 -19 12 -15 33
5 18 4 22 -3 13 -10 -15 -31 -7 -31 12 0 7 -12 20 -25 30 l-25 18 0 -54z"/>
<path d="M2446 5602 c-16 -2 -40 -14 -53 -26 l-25 -23 25 -19 c17 -14 38 -19
71 -18 51 2 119 32 111 49 -3 5 -8 17 -11 26 -6 16 -42 19 -118 11z"/>
<path d="M5046 5584 c-20 -28 -19 -28 27 -55 10 -6 44 -11 75 -13 50 -2 60 1
75 20 15 20 15 23 -7 43 -17 16 -40 23 -87 26 -60 5 -65 4 -83 -21z"/>
<path d="M1820 5511 c-18 -40 -21 -58 -16 -93 4 -24 10 -58 13 -75 3 -18 9
-33 13 -33 18 0 48 40 65 87 l18 51 -26 56 c-15 31 -31 56 -35 56 -5 0 -19
-22 -32 -49z"/>
<path d="M1727 5408 c-23 -64 -30 -167 -13 -174 8 -3 17 -17 20 -30 9 -35 27
-26 54 26 29 55 26 121 -7 151 -11 11 -21 31 -21 44 0 38 -16 30 -33 -17z"/>
<path d="M6240 5261 c0 -17 5 -33 10 -36 6 -4 10 8 10 29 0 20 -4 36 -10 36
-5 0 -10 -13 -10 -29z"/>
<path d="M5922 5253 c-31 -60 -17 -179 22 -185 17 -2 22 -11 24 -42 5 -59 -2
-70 -33 -50 -14 9 -25 26 -25 39 0 35 -32 56 -92 60 -78 4 -78 4 -78 15 0 6
22 10 49 10 58 0 67 9 47 47 -28 55 -67 73 -156 73 -44 0 -80 -3 -80 -6 0 -4
30 -43 68 -88 37 -44 72 -88 77 -97 6 -9 42 -59 81 -110 234 -311 264 -358
264 -417 1 -38 3 -43 11 -29 8 14 14 16 25 7 11 -10 11 -14 -1 -27 -8 -8 -15
-32 -15 -53 0 -31 8 -46 49 -89 48 -50 57 -73 17 -46 -49 35 -63 8 -31 -62 24
-50 96 -123 123 -123 8 0 21 8 28 18 21 27 35 -2 30 -65 -4 -61 5 -83 27 -64
12 9 17 9 22 0 4 -6 2 -15 -5 -19 -17 -10 -26 -110 -12 -119 16 -10 -11 -95
-31 -99 -25 -5 -42 35 -27 63 10 19 9 30 -6 61 -16 32 -26 40 -58 46 -21 5
-41 6 -44 3 -3 -2 9 -35 26 -72 71 -156 82 -196 82 -311 0 -76 -6 -131 -20
-183 -16 -63 -19 -93 -13 -201 5 -108 4 -131 -10 -152 -19 -28 -23 -61 -7 -51
6 4 20 25 31 48 36 70 86 124 142 151 28 14 60 32 70 39 23 19 22 47 -2 47
-35 0 -32 18 5 30 34 12 99 84 89 100 -3 4 -18 10 -35 13 -21 5 -28 11 -24 22
3 8 15 15 26 15 28 0 73 34 97 74 28 44 27 59 -1 50 -13 -5 -41 -7 -62 -6 -33
2 -44 -2 -72 -33 -45 -50 -54 -93 -23 -116 l23 -17 -27 -13 c-35 -16 -69 -73
-61 -103 4 -18 -2 -29 -28 -49 -37 -30 -51 -24 -64 26 -6 26 -5 28 20 21 26
-6 26 -5 26 46 0 44 -4 55 -25 72 -14 11 -25 28 -25 39 0 29 13 23 34 -16 11
-19 23 -35 27 -35 16 0 49 59 49 88 0 38 -38 110 -67 130 -23 14 -30 52 -17
86 9 24 24 9 24 -23 0 -16 7 -34 15 -41 8 -7 15 -18 15 -24 0 -6 9 -22 20 -36
l20 -25 24 30 c29 35 32 62 11 112 -19 46 -20 44 12 41 25 -3 28 1 35 42 5 25
6 56 3 70 -5 21 1 31 26 49 30 22 31 26 27 82 -4 51 -2 59 13 59 25 0 59 52
59 90 0 20 -10 44 -25 62 -14 16 -25 36 -25 44 0 21 -18 17 -25 -6 -3 -11 -11
-20 -16 -20 -5 0 -9 -29 -9 -65 0 -36 -3 -65 -7 -65 -5 0 -22 13 -39 30 -18
16 -34 27 -36 25 -2 -3 -3 19 -1 47 3 61 -8 72 -48 50 -40 -24 -46 -9 -15 36
38 55 35 174 -3 128 -7 -8 -25 -19 -41 -25 l-30 -10 17 26 c44 67 64 176 43
243 l-7 25 -12 -28 c-6 -16 -11 -35 -11 -43 0 -8 -11 -25 -24 -37 -13 -13 -32
-46 -41 -75 -25 -76 -34 -71 -49 28 -4 20 -15 52 -26 73 -24 44 -25 54 -5 73
24 24 29 78 10 108 -10 14 -22 26 -28 26 -5 0 -26 12 -45 27 -33 25 -36 25
-48 8 -13 -17 -14 -16 -24 9 -5 15 -10 38 -10 50 0 13 -12 36 -26 51 -19 21
-24 34 -19 54 17 68 24 135 15 152 -6 10 -10 29 -10 42 0 17 -5 24 -17 23 -11
-1 -19 10 -24 32 -4 19 -12 39 -18 45 -6 6 -11 21 -11 34 0 28 -35 32 -48 6z
m12 -342 c52 -39 106 -122 84 -130 -12 -4 -75 59 -121 121 -45 61 -35 64 37 9z
m550 -867 c13 -34 7 -45 -14 -27 -11 10 -20 23 -20 30 0 18 27 16 34 -3z"/>
<path d="M1332 5100 c0 -14 2 -19 5 -12 2 6 2 18 0 25 -3 6 -5 1 -5 -13z"/>
<path d="M6271 5064 c0 -11 3 -14 6 -6 3 7 2 16 -1 19 -3 4 -6 -2 -5 -13z"/>
<path d="M1390 4928 c0 -23 -10 -45 -35 -72 -29 -33 -35 -47 -35 -86 0 -50 12
-70 39 -63 37 9 51 54 48 157 -1 53 -5 96 -9 96 -5 0 -8 -15 -8 -32z"/>
<path d="M1301 4913 c0 -25 1 -26 9 -8 12 27 12 35 0 35 -5 0 -10 -12 -9 -27z"/>
<path d="M6218 4894 c-3 -5 -9 -32 -13 -61 -8 -61 13 -108 53 -118 31 -8 33
-5 39 48 4 36 1 48 -18 69 -13 14 -31 36 -40 49 -8 12 -18 18 -21 13z"/>
<path d="M6326 4725 c-4 -15 -18 -45 -32 -67 -22 -34 -26 -52 -25 -106 0 -36
5 -70 9 -74 15 -15 60 13 73 44 8 20 10 58 5 121 -6 95 -19 128 -30 82z"/>
<path d="M692 4660 c0 -14 2 -19 5 -12 2 6 2 18 0 25 -3 6 -5 1 -5 -13z"/>
<path d="M1718 4609 c-12 -8 -1 -47 20 -72 14 -16 16 -16 26 5 7 14 32 30 65
42 l53 19 26 -27 27 -26 3 -251 c3 -220 2 -253 -13 -276 -23 -34 -9 -45 51
-41 46 3 49 5 45 28 -2 14 -6 141 -8 282 -3 219 -1 262 12 288 18 36 35 32
-158 34 -77 0 -143 -2 -149 -5z"/>
<path d="M2095 4611 c-17 -7 -13 -11 27 -28 27 -13 49 -30 53 -43 9 -29 26
-21 50 23 17 33 18 39 5 47 -18 11 -106 12 -135 1z"/>
<path d="M2591 4611 c-10 -6 -11 -13 -2 -29 17 -32 15 -493 -3 -535 -20 -49
-43 -67 -84 -67 -30 0 -42 6 -65 36 -25 30 -30 47 -34 114 l-6 79 -26 -14
c-14 -8 -37 -24 -50 -35 l-24 -20 19 -43 c24 -52 71 -107 93 -107 9 0 29 -7
45 -15 15 -8 40 -15 55 -15 31 1 110 29 137 50 43 33 69 100 44 115 -6 4 -10
89 -10 223 1 175 3 221 15 236 12 16 12 22 2 28 -16 10 -89 10 -106 -1z"/>
<path d="M3150 4618 c0 -2 -1 -146 -3 -321 l-2 -317 51 0 c60 0 68 6 49 34
-10 13 -15 45 -15 92 0 69 2 74 44 132 49 66 58 74 71 64 28 -20 146 -267 138
-288 -8 -22 14 -34 68 -34 53 0 64 7 45 29 -18 21 -76 133 -76 148 0 6 -3 13
-7 15 -5 2 -18 23 -29 48 -59 123 -74 158 -74 176 1 23 34 65 114 144 33 33
56 63 52 69 -8 12 -57 14 -93 5 -18 -5 -20 -10 -13 -29 13 -34 -5 -87 -45
-131 -5 -7 -28 -33 -50 -59 -70 -83 -126 -137 -133 -130 -4 3 -8 70 -10 147
-3 120 -1 142 13 158 29 32 12 50 -45 50 -27 0 -50 -1 -50 -2z"/>
<path d="M3823 4612 c-10 -6 -10 -12 2 -28 20 -26 22 -553 3 -572 -18 -18 6
-32 52 -32 49 0 65 12 51 38 -7 14 -11 109 -11 275 0 204 3 260 15 283 11 22
12 30 2 36 -16 10 -98 10 -114 0z"/>
<path d="M4192 4601 c-70 -24 -78 -33 -58 -62 12 -17 16 -47 16 -111 0 -86 -1
-89 -26 -98 -25 -10 -25 -30 0 -30 19 0 26 -46 26 -162 0 -74 -4 -105 -16
-123 -20 -31 -8 -38 57 -33 l43 3 -3 142 c-2 90 1 149 9 162 13 26 57 27 150
5 77 -18 105 -44 114 -109 14 -88 -21 -151 -99 -179 -34 -12 -37 -15 -21 -22
31 -12 145 12 172 37 51 48 66 117 40 181 -14 33 -89 108 -107 108 -5 0 -9 7
-9 15 0 8 6 15 14 15 23 0 74 67 82 105 9 48 -35 120 -91 149 -57 30 -217 33
-293 7z m238 -21 c75 -54 78 -178 5 -226 -36 -24 -172 -35 -191 -16 -19 18
-20 211 -1 234 36 45 129 49 187 8z"/>
<path d="M4801 4611 c-11 -7 -11 -13 3 -32 23 -33 23 -210 0 -233 -8 -9 -22
-16 -30 -16 -8 0 -14 -4 -14 -10 0 -5 8 -10 19 -10 32 0 37 -21 40 -145 2 -95
-1 -124 -13 -140 -8 -11 -16 -23 -16 -27 0 -5 101 -8 225 -8 244 0 246 1 205
53 -11 14 -20 32 -20 41 0 25 -12 19 -51 -23 -42 -44 -112 -67 -185 -58 -72 8
-74 12 -74 156 0 85 4 131 12 139 18 18 133 16 152 -3 25 -26 36 -17 36 30 0
49 -4 53 -32 28 -26 -23 -138 -21 -155 4 -8 11 -13 52 -13 113 0 86 2 99 21
116 l21 19 -28 6 c-44 10 -87 10 -103 0z"/>
<path d="M5072 4613 c-19 -4 -21 -7 -11 -19 6 -8 18 -14 26 -14 8 0 28 -14 44
-31 17 -18 35 -29 44 -26 14 6 49 76 41 84 -7 7 -119 12 -144 6z"/>
<path d="M5475 4606 c-95 -41 -126 -180 -58 -260 28 -33 49 -42 188 -82 75
-22 109 -42 140 -85 39 -52 32 -102 -23 -161 -24 -26 -24 -28 -6 -28 29 0 94
71 103 112 5 20 6 58 3 87 -4 44 -10 56 -46 89 -30 28 -63 45 -113 60 -39 12
-77 22 -85 22 -28 0 -103 57 -123 93 -19 36 -19 36 2 80 24 49 69 77 125 77
39 0 113 -49 123 -80 8 -25 44 -26 51 -2 3 9 10 25 15 35 14 26 7 30 -69 44
-90 15 -190 15 -227 -1z"/>
<path d="M6891 4574 c0 -11 3 -14 6 -6 3 7 2 16 -1 19 -3 4 -6 -2 -5 -13z"/>
<path d="M860 4326 c0 -8 5 -18 10 -21 6 -3 10 1 10 9 0 8 -4 18 -10 21 -5 3
-10 -1 -10 -9z"/>
<path d="M856 4203 c-23 -101 -26 -135 -13 -151 5 -7 7 -35 3 -66 -6 -51 -5
-54 14 -49 14 4 20 0 20 -12 0 -21 45 -65 65 -65 8 0 17 -4 20 -10 12 -20 -29
-10 -61 15 -18 14 -35 25 -38 25 -3 0 -6 -11 -6 -25 0 -14 4 -25 9 -25 5 0 12
-11 15 -24 3 -14 27 -47 53 -75 38 -41 54 -51 80 -51 18 0 33 5 33 10 0 18
-42 94 -58 106 -13 10 -14 16 -3 42 11 25 10 35 -3 60 -9 17 -16 39 -17 49 0
10 -27 40 -60 68 -56 48 -72 76 -48 90 6 4 13 -3 16 -15 4 -16 11 -20 27 -16
11 3 27 6 34 6 17 0 16 63 -2 103 -8 18 -26 45 -39 60 l-24 28 -17 -78z"/>
<path d="M6703 4243 c-11 -16 -26 -44 -33 -64 -11 -30 -10 -40 4 -67 21 -41
48 -41 65 1 l13 32 11 -27 c6 -16 14 -28 19 -28 14 0 9 57 -6 70 -8 6 -22 34
-31 61 -9 27 -18 49 -19 49 -1 0 -11 -12 -23 -27z"/>
<path d="M6801 4234 c0 -11 3 -14 6 -6 3 7 2 16 -1 19 -3 4 -6 -2 -5 -13z"/>
<path d="M800 4214 c0 -14 4 -23 9 -20 5 3 7 15 4 26 -7 28 -13 25 -13 -6z"/>
<path d="M6520 4181 c0 -5 5 -13 10 -16 6 -3 10 -2 10 4 0 5 -4 13 -10 16 -5
3 -10 2 -10 -4z"/>
<path d="M1096 4165 c-3 -8 -1 -15 4 -15 6 0 10 7 10 15 0 8 -2 15 -4 15 -2 0
-6 -7 -10 -15z"/>
<path d="M5381 4074 c-36 -61 -38 -60 97 -80 29 -5 42 -3 42 5 0 6 -8 15 -17
18 -23 8 -57 42 -72 71 -16 30 -26 28 -50 -14z"/>
<path d="M1393 4080 c-52 -23 -70 -50 -79 -118 l-7 -53 29 7 c48 11 95 65 105
120 5 26 6 51 2 55 -5 4 -27 -1 -50 -11z"/>
<path d="M6160 4081 c0 -67 71 -165 115 -159 16 3 20 10 19 44 -1 50 -30 91
-82 117 -45 22 -52 21 -52 -2z"/>
<path d="M6695 4019 c-61 -54 -94 -146 -63 -177 10 -10 7 -18 -15 -38 -15 -13
-27 -30 -27 -36 0 -6 -7 -19 -16 -29 -23 -25 -11 -49 24 -49 22 0 41 12 76 50
58 62 78 107 74 168 -3 41 0 47 16 45 15 -1 17 4 12 29 -3 17 -6 39 -6 49 0
29 -34 23 -75 -12z m39 -136 c4 -10 4 -14 0 -10 -4 4 -18 -2 -30 -14 -12 -11
-30 -19 -41 -16 -17 4 -17 4 1 12 11 5 28 17 38 27 22 22 24 22 32 1z"/>
<path d="M5600 3970 c0 -5 11 -10 24 -10 14 0 28 5 31 10 4 6 -7 10 -24 10
-17 0 -31 -4 -31 -10z"/>
<path d="M900 3690 c0 -6 9 -30 21 -54 22 -48 81 -96 117 -96 12 0 22 -5 22
-11 0 -8 -20 -10 -60 -7 -68 5 -72 -1 -37 -50 29 -39 70 -72 90 -72 8 0 20 -7
27 -15 17 -20 59 -19 67 1 7 20 -20 74 -53 105 -19 18 -21 25 -12 44 24 52
-25 119 -99 136 -26 6 -56 15 -65 20 -12 6 -18 5 -18 -1z"/>
<path d="M6628 3674 c-49 -15 -98 -62 -98 -94 0 -10 -4 -22 -10 -25 -25 -15
-6 -24 38 -18 67 9 123 58 142 123 10 35 2 37 -72 14z"/>
<path d="M2545 3531 c-6 -10 34 -88 71 -136 12 -17 48 -83 79 -147 31 -64 63
-122 70 -128 41 -34 49 53 9 91 -33 30 -158 284 -149 300 4 6 1 15 -6 20 -19
12 -66 11 -74 0z"/>
<path d="M2775 3530 c-3 -5 3 -18 14 -29 21 -21 21 -21 31 -1 6 11 8 25 5 30
-8 13 -42 13 -50 0z"/>
<path d="M3425 3531 c-3 -2 0 -9 5 -16 6 -7 9 -89 7 -203 -2 -198 0 -210 38
-196 12 5 16 26 16 98 2 137 0 208 -6 243 -9 50 16 67 87 60 32 -3 65 -11 74
-18 11 -9 21 -9 39 -1 27 12 33 31 13 34 -31 4 -269 3 -273 -1z"/>
<path d="M3846 3532 c-3 -5 -1 -25 5 -46 12 -42 8 -333 -5 -358 -7 -16 -3 -18
33 -18 39 0 40 1 31 26 -13 33 -13 309 0 354 7 25 7 36 -3 42 -16 10 -55 10
-61 0z"/>
<path d="M4366 3532 c-10 -17 1 -63 21 -85 26 -29 56 -99 56 -132 0 -34 -31
-67 -55 -59 -22 7 -24 -9 -3 -26 13 -11 18 -10 28 2 27 33 46 29 68 -15 12
-23 21 -57 21 -74 -1 -32 0 -33 37 -33 45 0 56 8 38 29 -13 16 -34 66 -55 128
-8 27 -7 37 9 57 25 32 24 34 -12 38 -27 3 -33 10 -55 63 -13 33 -22 70 -19
81 3 14 -1 24 -11 28 -23 9 -62 7 -68 -2z"/>
<path d="M4740 3533 c-1 -4 -1 -100 -1 -213 0 -186 2 -205 18 -211 34 -12 70
10 43 26 -6 4 -10 78 -10 190 0 175 1 184 20 190 11 3 24 4 28 1 5 -3 22 -1
38 4 28 8 28 8 4 10 -14 0 -51 3 -82 6 -32 3 -58 2 -58 -3z"/>
<path d="M1931 3500 c33 -31 59 -33 59 -5 0 16 -38 35 -72 35 -18 0 -16 -4 13
-30z"/>
<path d="M2169 3507 c-53 -34 -79 -97 -79 -185 0 -80 15 -125 56 -162 32 -31
40 -20 15 21 -17 29 -20 52 -20 137 0 124 20 180 74 202 15 7 16 9 4 9 -9 1
-31 -9 -50 -22z"/>
<path d="M2296 3519 c44 -12 53 -27 67 -105 15 -81 6 -198 -18 -245 -19 -36
-15 -45 13 -30 24 13 58 81 67 134 9 46 -11 155 -35 195 -20 32 -71 63 -104
61 -15 -1 -12 -3 10 -10z"/>
<path d="M3073 3523 c15 -2 39 -2 55 0 15 2 2 4 -28 4 -30 0 -43 -2 -27 -4z"/>
<path d="M5204 3516 c-66 -36 -98 -123 -86 -236 5 -53 50 -140 72 -140 14 0
21 18 10 25 -22 14 -31 62 -31 163 0 93 3 108 25 147 19 31 34 45 54 48 25 4
25 4 2 5 -14 0 -35 -5 -46 -12z"/>
<path d="M5318 3523 c7 -3 16 -2 19 1 4 3 -2 6 -13 5 -11 0 -14 -3 -6 -6z"/>
<path d="M5746 3500 c35 -35 40 -36 47 -10 6 23 -18 40 -54 40 -22 0 -21 -1 7
-30z"/>
<path d="M1758 3501 c-38 -30 -71 -116 -71 -183 1 -75 39 -160 85 -188 41 -25
47 -11 15 32 -38 51 -53 144 -38 231 7 40 20 83 28 95 20 32 12 37 -19 13z"/>
<path d="M4916 3511 c-3 -5 1 -14 9 -21 66 -55 68 -243 3 -332 -19 -27 -1 -34
29 -12 52 39 68 80 68 179 0 73 -4 96 -20 120 -31 46 -79 82 -89 66z"/>
<path d="M2984 3483 c-37 -40 -64 -107 -64 -161 1 -78 59 -182 102 -182 23 0
23 12 -1 34 -18 16 -32 62 -44 140 -5 32 19 133 38 156 38 47 13 58 -31 13z"/>
<path d="M3200 3491 c16 -30 30 -35 45 -15 22 29 18 34 -20 34 -32 0 -35 -2
-25 -19z"/>
<path d="M5360 3503 c0 -5 4 -13 9 -18 17 -17 32 -147 25 -215 -3 -36 -15 -82
-25 -102 -16 -31 -17 -38 -5 -38 19 0 42 23 63 63 13 24 18 57 18 129 0 91 -2
99 -30 139 -29 41 -55 61 -55 42z"/>
<path d="M5573 3499 c-46 -56 -28 -136 38 -169 21 -11 50 -20 64 -20 32 0 98
-37 115 -64 7 -12 12 -38 12 -58 -2 -47 13 -49 35 -4 33 71 -13 135 -120 168
-100 30 -121 48 -127 110 -4 42 -7 49 -17 37z"/>
<path d="M3065 3370 c3 -5 8 -10 11 -10 2 0 4 5 4 10 0 6 -5 10 -11 10 -5 0
-7 -4 -4 -10z"/>
<path d="M3592 3346 c1 -10 8 -17 13 -17 15 1 12 24 -3 29 -9 3 -13 -2 -10
-12z"/>
<path d="M4270 3347 c0 -21 55 -77 75 -77 14 0 12 6 -9 43 -25 42 -66 63 -66
34z"/>
<path d="M3210 3328 c0 -7 -1 -59 -3 -116 l-2 -102 34 0 c30 0 33 2 27 23 -3
12 -6 64 -6 115 0 91 0 92 -25 92 -14 0 -25 -6 -25 -12z"/>
<path d="M4254 3182 c-12 -9 -47 -63 -42 -66 2 -2 18 -6 36 -9 22 -5 34 -3 38
6 7 19 -20 77 -32 69z"/>
<path d="M4048 3144 l-28 -32 26 -5 c57 -11 85 21 47 53 -16 14 -21 12 -45
-16z"/>
<path d="M5544 3165 c-8 -20 4 -35 26 -35 25 0 35 17 20 35 -16 19 -39 19 -46
0z"/>
<path d="M3657 3152 c-22 -25 -21 -29 7 -34 34 -7 50 5 41 31 -8 26 -27 27
-48 3z"/>
<path d="M2540 3141 c-15 -28 -13 -31 20 -31 31 0 39 17 18 38 -17 17 -26 15
-38 -7z"/>
<path d="M2305 3120 c-3 -5 -1 -10 4 -10 6 0 11 5 11 10 0 6 -2 10 -4 10 -3 0
-8 -4 -11 -10z"/>
<path d="M6154 2974 c-4 -16 -18 -46 -31 -66 -12 -21 -23 -40 -23 -43 0 -4
-45 -99 -101 -213 -56 -114 -109 -227 -119 -252 -30 -72 -55 -117 -90 -156
-18 -20 -40 -55 -50 -78 -24 -56 -134 -200 -184 -240 -84 -68 -181 -128 -354
-217 -97 -51 -202 -108 -232 -128 -50 -32 -145 -84 -255 -139 -106 -53 -176
-81 -245 -97 -41 -10 -127 -35 -190 -57 -63 -22 -132 -44 -153 -49 -21 -5 -80
-25 -130 -43 -51 -19 -105 -37 -120 -41 -40 -8 -29 -26 29 -46 83 -29 158 -19
89 13 -14 6 -25 15 -25 19 0 17 69 40 188 64 69 14 129 28 134 31 5 3 64 25
131 49 67 23 160 57 207 74 47 18 96 36 110 40 80 27 377 197 490 281 86 65
149 86 116 38 -19 -27 -160 -182 -216 -237 -40 -39 -137 -94 -251 -140 -19 -8
-45 -23 -59 -34 l-25 -20 50 7 c28 4 78 11 113 16 72 9 84 16 60 34 -16 12
-16 14 5 34 13 12 31 22 40 22 9 0 19 5 22 10 4 6 41 28 83 50 42 22 118 62
167 90 50 27 124 68 165 90 41 22 98 52 125 68 28 16 82 46 120 67 39 20 94
51 124 68 210 115 435 215 546 242 l30 7 -24 -26 c-14 -14 -30 -26 -37 -26
-18 0 -219 -115 -422 -242 -61 -38 -183 -104 -267 -146 -162 -79 -189 -93
-275 -143 -47 -27 -114 -63 -150 -79 -36 -17 -78 -37 -95 -45 l-30 -14 26 0
c14 -1 48 6 75 14 27 8 59 15 70 15 19 0 52 12 204 78 19 8 91 42 160 75 69
32 134 63 145 68 11 4 51 22 89 39 38 17 80 30 92 28 21 -3 18 -9 -37 -68 -72
-77 -120 -148 -149 -222 -12 -29 -25 -60 -29 -68 -6 -11 -36 -17 -122 -23 -63
-4 -136 -14 -164 -22 -27 -8 -135 -26 -240 -40 -298 -40 -304 -42 -105 -44 96
-1 229 -6 295 -11 119 -10 233 -35 220 -48 -4 -4 -122 -10 -263 -13 -141 -4
-311 -12 -377 -18 -66 -6 -199 -18 -295 -27 -264 -23 -305 -28 -305 -39 0 -5
23 -14 50 -18 28 -4 93 -16 145 -25 141 -25 581 -24 701 1 127 27 210 14 136
-21 -15 -7 -27 -17 -27 -22 0 -24 237 40 317 86 49 28 63 30 63 8 0 -55 -170
-141 -340 -173 -36 -7 -101 -21 -145 -31 -44 -10 -114 -26 -155 -35 -93 -21
-146 -38 -196 -64 -60 -31 -134 -61 -150 -61 -27 0 -14 29 34 70 65 58 108 84
167 100 54 14 81 30 50 30 -28 0 -84 -21 -138 -52 -26 -16 -52 -28 -58 -28
-29 0 -209 -214 -209 -248 0 -12 3 -12 15 -2 32 27 94 59 310 160 33 15 85 35
115 43 30 9 87 25 125 36 105 31 155 40 205 41 73 0 222 31 272 56 87 44 145
126 125 177 -8 20 21 119 43 149 25 34 25 36 -6 69 l-25 26 41 84 c84 170 175
252 403 364 100 49 160 98 203 167 13 21 24 45 24 53 0 9 6 18 14 21 39 15 50
166 16 222 -31 51 -40 49 -274 -78 -55 -29 -116 -64 -135 -77 -20 -14 -58 -35
-86 -49 -27 -13 -57 -28 -65 -34 -22 -14 -167 -98 -230 -132 -30 -17 -77 -47
-105 -67 -104 -77 -123 -90 -220 -148 -115 -69 -173 -98 -182 -90 -8 9 44 62
92 95 67 46 338 273 373 313 38 44 75 57 160 57 68 0 83 5 64 24 -22 22 -14
38 16 33 29 -5 113 31 119 52 6 18 -36 36 -82 35 -22 0 -60 -10 -84 -23 l-43
-22 22 -17 c23 -17 22 -17 -31 -23 -63 -6 -84 5 -68 35 6 11 17 17 24 14 25
-9 47 20 60 80 12 57 13 58 20 27 10 -42 23 -41 66 3 l34 35 -2 104 c-1 58 2
107 7 110 9 5 127 244 132 266 2 8 -5 13 -15 13 -15 -2 -17 4 -11 35 6 39 18
81 42 149 8 23 12 45 9 48 -3 4 -9 -7 -13 -22z"/>
<path d="M1456 2948 c19 -62 37 -126 41 -155 4 -27 2 -33 -12 -33 -22 0 -14
-36 20 -91 14 -21 25 -41 25 -44 0 -2 18 -42 40 -89 39 -81 47 -117 34 -150
-10 -27 -22 -18 -22 18 0 41 -20 101 -46 140 l-19 29 -19 -23 c-21 -26 -28
-21 -47 35 -15 43 -75 114 -87 102 -5 -4 -8 -43 -9 -86 0 -70 3 -81 28 -114
33 -43 54 -47 67 -12 14 36 17 31 18 -21 2 -79 67 -152 97 -110 18 23 25 20
25 -12 0 -41 45 -100 91 -119 28 -11 44 -25 54 -49 11 -26 20 -34 39 -34 15 0
30 -8 36 -20 14 -27 -14 -40 -68 -33 -36 5 -46 2 -69 -21 -14 -14 -23 -29 -20
-33 4 -3 45 -7 92 -8 l85 -1 72 -70 c40 -38 75 -71 78 -74 7 -7 66 -57 125
-105 27 -22 60 -51 74 -64 15 -13 45 -37 69 -54 24 -17 39 -33 33 -35 -10 -3
-109 45 -121 59 -3 3 -12 8 -20 11 -8 3 -59 36 -113 74 -54 38 -103 72 -110
76 -7 4 -50 29 -97 56 -74 43 -136 79 -190 111 -21 13 -197 110 -250 139 -25
13 -82 44 -127 69 -95 51 -134 54 -166 12 -30 -42 -26 -209 6 -209 7 0 23 -23
37 -52 39 -83 110 -145 235 -208 60 -30 130 -68 155 -84 57 -37 143 -119 180
-172 35 -50 87 -177 74 -181 -69 -24 -83 -50 -51 -96 14 -21 28 -55 32 -77 4
-21 12 -43 18 -48 30 -24 162 -85 223 -103 127 -39 226 -45 154 -10 -86 41 -5
56 132 24 109 -25 561 -25 708 1 58 10 123 21 145 25 79 13 33 38 -75 40 -30
0 -120 8 -200 16 -258 26 -542 45 -690 46 -80 1 -170 4 -200 8 l-55 7 45 13
c25 7 61 17 80 22 19 5 161 13 315 16 l280 7 -230 32 c-126 18 -257 40 -290
48 -33 8 -100 18 -150 22 -93 6 -115 15 -115 43 0 16 -19 55 -59 121 -11 19
-24 41 -27 49 -6 12 -67 81 -116 133 -19 19 -24 38 -10 38 20 0 273 -109 417
-180 140 -68 217 -99 308 -121 122 -30 157 -21 63 15 -24 9 -100 48 -168 87
-67 38 -188 101 -268 140 -133 65 -239 124 -418 236 -37 23 -94 56 -127 73
-88 48 -149 83 -155 90 -3 4 -17 10 -32 14 -36 8 -36 26 0 26 28 0 86 -20 177
-60 74 -32 377 -185 477 -241 49 -27 90 -49 93 -49 2 0 29 -15 58 -34 29 -19
69 -41 88 -50 18 -9 50 -26 69 -38 38 -23 83 -48 225 -123 50 -26 97 -54 106
-61 8 -8 22 -14 30 -14 15 -1 76 -47 69 -53 -3 -2 -16 -8 -30 -14 l-25 -11 25
-5 c64 -14 197 -29 215 -25 16 4 9 10 -30 27 -146 66 -264 125 -299 149 -57
39 -259 264 -245 273 11 6 59 -17 109 -54 160 -117 387 -242 570 -312 52 -20
104 -40 115 -45 11 -5 70 -25 130 -46 61 -20 118 -41 128 -46 9 -5 64 -17 121
-28 109 -20 203 -47 211 -61 3 -4 -8 -16 -25 -25 -62 -37 -22 -48 69 -18 72
23 87 40 44 50 -15 3 -64 19 -108 34 -168 60 -391 131 -474 151 -71 17 -231
82 -291 119 -8 5 -49 27 -90 48 -42 22 -102 56 -133 76 -32 21 -138 78 -235
128 -97 50 -186 98 -197 108 -11 9 -27 19 -35 22 -8 3 -48 31 -88 62 -75 60
-157 160 -207 256 -16 30 -41 69 -56 85 -27 29 -49 70 -104 190 -105 229 -254
535 -261 535 -3 0 -2 -10 2 -22z"/>
<path d="M1390 2896 c0 -8 5 -18 10 -21 6 -3 10 1 10 9 0 8 -4 18 -10 21 -5 3
-10 -1 -10 -9z"/>
<path d="M952 2868 c2 -7 10 -34 17 -60 15 -55 47 -88 87 -91 27 -2 29 1 32
37 3 32 -1 44 -20 58 -39 32 -120 70 -116 56z"/>
<path d="M6187 2864 c-4 -4 -7 -14 -7 -23 0 -11 3 -12 11 -4 6 6 10 16 7 23
-2 6 -7 8 -11 4z"/>
<path d="M6605 2851 c-53 -24 -78 -54 -78 -92 0 -55 37 -58 84 -7 23 25 55
118 40 118 -3 0 -24 -9 -46 -19z"/>
<path d="M1119 2843 c0 -21 -6 -63 -10 -78 -6 -26 15 -63 48 -80 35 -19 35
-19 49 0 18 24 17 34 0 76 -14 34 -67 99 -79 99 -4 0 -7 -8 -8 -17z"/>
<path d="M1410 2851 c0 -5 5 -13 10 -16 6 -3 10 -2 10 4 0 5 -4 13 -10 16 -5
3 -10 2 -10 -4z"/>
<path d="M6448 2828 c-14 -18 -31 -44 -38 -57 l-13 -25 -23 27 c-27 32 -38 35
-29 8 3 -12 0 -21 -10 -25 -8 -3 -15 -12 -15 -21 0 -8 -4 -15 -9 -15 -13 0
-42 -77 -35 -95 9 -22 -9 -19 -23 5 -8 11 -10 32 -6 52 l6 33 -36 -39 c-20
-21 -39 -47 -42 -57 -4 -10 -10 -19 -16 -19 -5 0 -12 -18 -15 -40 -7 -43 -21
-53 -26 -18 -5 36 -21 30 -55 -20 -29 -42 -33 -55 -33 -115 0 -52 4 -69 16
-74 29 -11 61 15 88 72 18 38 31 55 41 52 28 -11 95 71 95 117 0 28 0 29 20
11 25 -22 39 -12 77 56 22 39 30 46 44 38 23 -12 78 18 85 47 8 33 0 127 -12
131 -6 2 -22 -11 -36 -29z"/>
<path d="M6158 2814 c-5 -4 -8 -16 -8 -28 0 -14 3 -17 11 -9 6 6 9 19 7 28 -1
9 -6 13 -10 9z"/>
<path d="M1445 2790 c4 -6 11 -8 16 -5 14 9 11 15 -7 15 -8 0 -12 -5 -9 -10z"/>
<path d="M1235 2750 c-12 -56 3 -114 40 -156 29 -33 36 -37 45 -24 6 9 9 40 6
74 -3 45 -11 66 -33 94 -38 47 -50 49 -58 12z"/>
<path d="M6615 2720 c-10 -11 -15 -20 -11 -20 11 0 39 30 34 36 -3 2 -13 -5
-23 -16z"/>
<path d="M1020 2677 c0 -7 9 -23 20 -35 11 -12 20 -24 20 -26 0 -3 17 -21 38
-41 33 -31 43 -34 94 -35 31 0 60 5 63 10 3 6 -17 33 -45 60 -38 37 -59 50
-81 50 -16 0 -46 7 -66 15 -43 18 -43 18 -43 2z"/>
<path d="M6540 2674 c-19 -7 -46 -13 -60 -13 -29 -1 -120 -81 -120 -106 0 -13
10 -15 58 -13 41 2 60 -1 69 -12 11 -13 12 -12 13 8 0 13 17 40 41 64 26 27
39 47 36 59 -3 10 0 20 7 23 26 11 -12 2 -44 -10z"/>
<path d="M1140 2506 c0 -13 29 -37 77 -63 53 -28 163 -28 163 0 0 7 -24 27
-53 45 -46 28 -62 32 -120 32 -50 0 -67 -3 -67 -14z"/>
<path d="M6320 2507 c-14 -7 -40 -23 -58 -35 -28 -20 -31 -26 -20 -39 16 -20
116 -11 161 14 42 24 69 52 62 63 -8 14 -114 11 -145 -3z"/>
<path d="M1297 2391 c-48 -20 -44 -38 13 -69 39 -21 54 -23 114 -18 37 3 70 7
72 9 11 10 -10 36 -44 55 -60 33 -111 41 -155 23z"/>
<path d="M6211 2393 c-31 -6 -91 -51 -91 -69 0 -18 25 -24 100 -21 54 2 71 7
103 31 43 33 47 46 13 46 -14 0 -28 5 -31 10 -6 10 -49 11 -94 3z"/>
<path d="M1392 2258 l-34 -21 31 -20 c17 -10 47 -23 65 -27 44 -10 148 1 153
17 2 6 -11 25 -29 42 -30 28 -39 31 -93 30 -42 0 -70 -7 -93 -21z"/>
<path d="M6032 2247 c-45 -45 -42 -57 16 -58 91 -2 127 3 164 22 21 11 38 21
38 23 0 2 -16 13 -36 25 -25 15 -51 21 -92 20 -50 0 -61 -4 -90 -32z"/>
<path d="M1565 2163 c-24 -6 -45 -22 -45 -34 0 -16 79 -49 115 -49 39 0 99 26
90 39 -15 25 -119 54 -160 44z"/>
<path d="M1050 1985 c-7 -8 -13 -32 -14 -54 -1 -49 33 -94 121 -161 88 -66
114 -65 41 3 -74 68 -106 118 -114 178 -7 52 -14 58 -34 34z"/>
<path d="M6582 1988 c-5 -7 -13 -29 -17 -48 -12 -55 -70 -136 -126 -177 -29
-20 -47 -39 -40 -41 18 -6 115 62 167 115 47 50 61 92 45 136 -12 31 -15 32
-29 15z"/>
<path d="M2525 1350 c27 -12 35 -12 35 0 0 6 -12 10 -27 9 -25 0 -26 -1 -8 -9z"/>
<path d="M5075 1350 c-7 -12 12 -12 40 0 18 8 17 9 -7 9 -15 1 -30 -3 -33 -9z"/>
<path d="M2834 1179 c-3 -5 18 -9 47 -9 29 0 50 2 48 4 -10 9 -90 13 -95 5z"/>
<path d="M4720 1183 c-25 -3 -49 -9 -55 -14 -12 -12 102 -1 125 12 16 9 17 9
-70 2z"/>
<path d="M3010 1153 c0 -12 73 -23 139 -22 43 1 44 1 16 10 -50 15 -155 23
-155 12z"/>
<path d="M4457 1145 c-32 -7 -131 -13 -220 -14 -89 -1 -166 -6 -171 -12 -16
-15 268 -14 339 1 22 5 75 12 118 15 42 4 75 11 71 16 -7 12 -66 10 -137 -6z"/>
<path d="M3218 1129 l-23 -5 25 -7 c39 -11 336 -9 325 2 -11 11 -291 19 -327
10z"/>
<path d="M1764 1028 c7 -36 74 -111 121 -134 37 -19 149 -41 275 -55 86 -9
211 -38 328 -75 23 -8 47 -14 52 -14 15 0 237 -108 313 -152 38 -22 71 -38 74
-35 8 9 -61 110 -119 172 -39 42 -77 71 -129 97 -90 44 -125 58 -146 58 -27 0
-3 -14 57 -35 77 -26 218 -135 203 -157 -9 -15 -36 -8 -122 33 -119 56 -133
60 -348 110 -24 5 -99 21 -168 34 -68 14 -141 33 -160 41 -120 50 -165 76
-190 108 -34 45 -50 46 -41 4z"/>
<path d="M2228 943 c6 -2 18 -2 25 0 6 3 1 5 -13 5 -14 0 -19 -2 -12 -5z"/>
</g>
</svg>
